<?xml version="1.0" encoding="UTF-8" standalone="no"?>
<!-- Created with Inkscape (http://www.inkscape.org/) -->

<svg
   xmlns:dc="http://purl.org/dc/elements/1.1/"
   xmlns:cc="http://creativecommons.org/ns#"
   xmlns:rdf="http://www.w3.org/1999/02/22-rdf-syntax-ns#"
   xmlns:svg="http://www.w3.org/2000/svg"
   xmlns="http://www.w3.org/2000/svg"
   xmlns:sodipodi="http://sodipodi.sourceforge.net/DTD/sodipodi-0.dtd"
   xmlns:inkscape="http://www.inkscape.org/namespaces/inkscape"
   id="svg2"
   version="1.1"
   inkscape:version="0.48.4 r9939"
   width="1052.3625"
   height="744.1"
   xml:space="preserve"
   sodipodi:docname="aedc-logo-v1.ai"><metadata
     id="metadata8"><rdf:RDF><cc:Work
         rdf:about=""><dc:format>image/svg+xml</dc:format><dc:type
           rdf:resource="http://purl.org/dc/dcmitype/StillImage" /><dc:title></dc:title></cc:Work></rdf:RDF></metadata><defs
     id="defs6"><clipPath
       clipPathUnits="userSpaceOnUse"
       id="clipPath20"><path
         d="m 0,595.28 841.89,0 L 841.89,0 0,0 0,595.28 z"
         id="path22" /></clipPath></defs><sodipodi:namedview
     pagecolor="#ffffff"
     bordercolor="#666666"
     borderopacity="1"
     objecttolerance="10"
     gridtolerance="10"
     guidetolerance="10"
     inkscape:pageopacity="0"
     inkscape:pageshadow="2"
     inkscape:window-width="640"
     inkscape:window-height="480"
     id="namedview4"
     showgrid="false"
     inkscape:zoom="0.30122699"
     inkscape:cx="526.18127"
     inkscape:cy="372.04999"
     inkscape:window-x="0"
     inkscape:window-y="0"
     inkscape:window-maximized="0"
     inkscape:current-layer="g10" /><g
     id="g10"
     inkscape:groupmode="layer"
     inkscape:label="aedc-logo-v1"
     transform="matrix(1.25,0,0,-1.25,0,744.1)"><g
       id="g12"
       transform="translate(298.0596,273.6426)"><path
         d="M 0,0 50.978,-29.361 -69.99,-40.405 0,0 z M 4.685,66.402 74.741,-32.813 4.751,7.591 4.685,66.402 z M -55.729,-21.883 -4.841,88.4 l 0,-80.809 -50.888,-29.474 z"
         style="fill:#231f20;fill-opacity:1;fill-rule:evenodd;stroke:none"
         id="path14" /></g><g
       id="g16"><g
         id="g18"
         clip-path="url(#clipPath20)"><g
           id="g24"
           transform="translate(394.0723,265.1357)"><path
             d="m 0,0 c 3.966,0 6.719,3.033 6.719,6.953 0,3.779 -3.033,6.579 -6.907,6.579 l -2.822,0 L -3.01,0 0,0 z m -5.25,15.632 5.833,0 c 4.339,0 8.516,-3.71 8.516,-8.796 C 9.099,1.773 5.063,-2.1 0.023,-2.1 l -5.273,0 0,17.732 z"
             style="fill:#231f20;fill-opacity:1;fill-rule:nonzero;stroke:none"
             id="path26" /></g><path
           d="m 406.021,280.768 2.239,0 0,-17.731 -2.239,0 0,17.731 z"
           style="fill:#231f20;fill-opacity:1;fill-rule:nonzero;stroke:none"
           id="path28" /><g
           id="g30"
           transform="translate(416.1465,271.0381)"><path
             d="M 0,0 C 2.684,0 4.223,1.307 4.223,3.873 4.223,6.439 2.684,7.77 0,7.77 l -2.193,0 0,-7.77 L 0,0 z m -4.433,9.729 4.9,0 c 3.756,0 5.996,-2.893 5.996,-5.856 0,-2.963 -2.24,-5.832 -5.996,-5.832 l -2.66,0 0,-6.043 -2.24,0 0,17.731 z"
             style="fill:#231f20;fill-opacity:1;fill-rule:nonzero;stroke:none"
             id="path32" /></g><g
           id="g34"
           transform="translate(425.1084,280.7676)"><path
             d="m 0,0 2.239,0 0,-15.632 6.231,0 0,-2.099 -8.47,0 L 0,0 z"
             style="fill:#231f20;fill-opacity:1;fill-rule:nonzero;stroke:none"
             id="path36" /></g><g
           id="g38"
           transform="translate(444.709,264.8555)"><path
             d="m 0,0 c 3.615,0 7.021,2.847 7.021,7.046 0,4.2 -3.406,7.046 -7.021,7.046 -3.617,0 -7.023,-2.846 -7.023,-7.046 C -7.023,2.847 -3.617,0 0,0 m 0,16.192 c 6.019,0 9.402,-4.759 9.402,-9.146 C 9.402,2.66 6.019,-2.1 0,-2.1 c -6.02,0 -9.402,4.76 -9.402,9.146 0,4.387 3.382,9.146 9.402,9.146"
             style="fill:#231f20;fill-opacity:1;fill-rule:nonzero;stroke:none"
             id="path40" /></g><g
           id="g42"
           transform="translate(473.7129,280.7676)"><path
             d="m 0,0 2.239,0 0,-17.731 -2.239,0 0,13.134 -0.047,0 -7.162,-13.321 -7.163,13.321 -0.047,0 0,-13.134 -2.239,0 0,17.731 2.239,0 7.21,-13.392 L 0,0 z"
             style="fill:#231f20;fill-opacity:1;fill-rule:nonzero;stroke:none"
             id="path44" /></g><g
           id="g46"
           transform="translate(486.3623,277.8281)"><path
             d="m 0,0 -3.359,-8.703 6.718,0 L 0,0 z m 4.13,-10.662 -8.26,0 -1.609,-4.13 -2.449,0 7.209,17.731 1.958,0 7.21,-17.731 -2.45,0 -1.609,4.13 z"
             style="fill:#231f20;fill-opacity:1;fill-rule:nonzero;stroke:none"
             id="path48" /></g><g
           id="g50"
           transform="translate(497.7744,278.668)"><path
             d="m 0,0 -4.433,0 0,2.1 11.106,0 0,-2.1 -4.434,0 0,-15.632 -2.239,0 L 0,0 z"
             style="fill:#231f20;fill-opacity:1;fill-rule:nonzero;stroke:none"
             id="path52" /></g><path
           d="m 506.618,280.768 2.24,0 0,-17.731 -2.24,0 0,17.731 z"
           style="fill:#231f20;fill-opacity:1;fill-rule:nonzero;stroke:none"
           id="path54" /><g
           id="g56"
           transform="translate(525.6807,277.1279)"><path
             d="m 0,0 c -1.26,1.144 -2.87,1.819 -4.573,1.819 -3.709,0 -7.023,-2.963 -7.023,-7.046 0,-4.128 3.407,-7.045 7.023,-7.045 1.96,0 3.5,0.723 4.736,1.89 l 1.424,-1.61 c -1.587,-1.446 -3.92,-2.38 -6.16,-2.38 -6.019,0 -9.402,4.76 -9.402,9.145 0,4.387 3.383,9.147 9.402,9.147 2.356,0 4.667,-0.957 6.09,-2.264 L 0,0 z"
             style="fill:#231f20;fill-opacity:1;fill-rule:nonzero;stroke:none"
             id="path58" /></g><g
           id="g60"
           transform="translate(549.0391,277.1279)"><path
             d="m 0,0 c -1.26,1.144 -2.87,1.819 -4.573,1.819 -3.709,0 -7.023,-2.963 -7.023,-7.046 0,-4.128 3.407,-7.045 7.023,-7.045 1.96,0 3.5,0.723 4.736,1.89 l 1.424,-1.61 c -1.587,-1.446 -3.92,-2.38 -6.16,-2.38 -6.019,0 -9.402,4.76 -9.402,9.145 0,4.387 3.383,9.147 9.402,9.147 2.356,0 4.667,-0.957 6.09,-2.264 L 0,0 z"
             style="fill:#231f20;fill-opacity:1;fill-rule:nonzero;stroke:none"
             id="path62" /></g><g
           id="g64"
           transform="translate(561.7578,264.8555)"><path
             d="m 0,0 c 3.616,0 7.023,2.847 7.023,7.046 0,4.2 -3.407,7.046 -7.023,7.046 -3.616,0 -7.022,-2.846 -7.022,-7.046 C -7.022,2.847 -3.616,0 0,0 m 0,16.192 c 6.02,0 9.402,-4.759 9.402,-9.146 C 9.402,2.66 6.02,-2.1 0,-2.1 c -6.019,0 -9.401,4.76 -9.401,9.146 0,4.387 3.382,9.146 9.401,9.146"
             style="fill:#231f20;fill-opacity:1;fill-rule:nonzero;stroke:none"
             id="path66" /></g><g
           id="g68"
           transform="translate(576.3438,271.9717)"><path
             d="m 0,0 c 0.304,-0.023 0.63,-0.023 1.96,-0.023 3.43,0 4.619,1.493 4.619,3.429 0,2.076 -1.423,3.43 -3.756,3.43 L 0,6.836 0,0 z m 0,-1.376 0,-7.56 -2.239,0 0,17.732 5.109,0 c 3.406,0 5.949,-1.96 5.949,-5.366 0,-3.173 -2.496,-5.133 -5.389,-5.296 l 6.906,-7.07 -3.149,0 L 0,-1.376 z"
             style="fill:#231f20;fill-opacity:1;fill-rule:nonzero;stroke:none"
             id="path70" /></g><g
           id="g72"
           transform="translate(593.2383,271.0381)"><path
             d="M 0,0 C 2.683,0 4.223,1.307 4.223,3.873 4.223,6.439 2.683,7.77 0,7.77 l -2.193,0 0,-7.77 L 0,0 z m -4.433,9.729 4.9,0 c 3.756,0 5.996,-2.893 5.996,-5.856 0,-2.963 -2.24,-5.832 -5.996,-5.832 l -2.66,0 0,-6.043 -2.24,0 0,17.731 z"
             style="fill:#231f20;fill-opacity:1;fill-rule:nonzero;stroke:none"
             id="path74" /></g><g
           id="g76"
           transform="translate(610.5049,275.7051)"><path
             d="m 0,0 c -0.304,2.1 -1.517,3.383 -3.406,3.383 -2.52,0 -3.197,-1.656 -3.197,-2.87 0,-1.33 0.84,-2.17 2.59,-2.824 l 2.24,-0.839 c 2.823,-1.05 4.129,-2.706 4.129,-4.853 0,-2.869 -2.287,-4.946 -5.693,-4.946 -3.22,0 -5.506,1.703 -5.785,5.25 l 2.239,0 c 0.187,-1.937 1.167,-3.29 3.663,-3.29 1.937,0 3.336,1.236 3.336,2.8 0,1.376 -1.142,2.262 -2.753,2.892 l -2.262,0.887 c -2.637,1.026 -3.944,2.566 -3.944,4.853 0,3.056 2.543,4.9 5.46,4.9 2.94,0 5.226,-1.75 5.483,-5.343 L 0,0 z"
             style="fill:#231f20;fill-opacity:1;fill-rule:nonzero;stroke:none"
             id="path78" /></g><g
           id="g80"
           transform="translate(456.1396,332.5244)"><path
             d="m 0,0 0,-31.931 31.999,0 0,-9.511 -45.382,0 0,41.442 L 0,0 z m -20.992,-9.512 0,9.512 -48.098,0 0,-41.442 48.098,0 0,9.511 -34.714,0 0,7.133 34.714,0 0,8.153 -34.714,0 0,7.133 34.714,0 z m 73.302,0 0,-31.93 -13.382,0 0,21.93 13.382,10 z M 109.581,0 l 0,-41.442 48.1,0 0,9.511 -34.717,0 0,7.133 34.717,0 0,8.153 -34.717,0 0,7.133 34.717,0 0,9.512 -48.1,0 z m -6.248,-9.512 0,9.512 -64.405,0 13.382,-9.512 19.226,0 0,-31.93 13.385,0 0,31.93 18.412,0 z"
             style="fill:#231f20;fill-opacity:1;fill-rule:evenodd;stroke:none"
             id="path82" /></g></g></g></g></svg>